<?xml version="1.0" standalone="no"?>
<!DOCTYPE svg PUBLIC "-//W3C//DTD SVG 20010904//EN"
 "http://www.w3.org/TR/2001/REC-SVG-20010904/DTD/svg10.dtd">
<svg version="1.0" xmlns="http://www.w3.org/2000/svg"
 width="500.000000pt" height="500.000000pt" viewBox="0 0 500.000000 500.000000"
 preserveAspectRatio="xMidYMid meet">
<metadata>
Created by potrace 1.14, written by Peter Selinger 2001-2017
</metadata>
<g transform="translate(0.000000,500.000000) scale(0.100000,-0.100000)"
fill="#000000" stroke="none">
<path d="M870 3366 c0 -7 11 -69 25 -137 78 -382 35 -806 -112 -1091 -96 -187
-191 -199 -243 -32 -38 126 -50 377 -31 694 9 148 4 185 -24 185 -16 0 -37
-56 -132 -339 -62 -187 -116 -342 -119 -345 -12 -11 4 182 26 304 38 223 117
516 158 587 18 31 7 53 -21 42 -33 -12 -132 -323 -173 -544 -32 -173 -51 -395
-38 -441 12 -43 37 -48 61 -13 10 15 61 155 113 310 l95 283 0 -292 c0 -241 3
-305 18 -367 85 -371 315 -268 443 198 61 223 77 557 36 787 -28 155 -49 225
-67 225 -8 0 -15 -6 -15 -14z"/>
<path d="M3783 3340 c-96 -39 -255 -299 -339 -557 -21 -62 -38 -112 -39 -110
-1 1 9 83 22 182 29 226 29 411 -1 444 -28 30 -49 26 -88 -17 -101 -112 -186
-406 -147 -509 12 -32 26 -43 57 -43 27 0 29 20 2 27 -11 3 -23 17 -26 30 -12
46 4 177 31 253 32 94 105 225 125 225 27 0 24 -156 -10 -430 -67 -554 -71
-609 -43 -603 18 3 20 8 47 159 37 203 132 484 225 664 43 83 73 127 127 183
40 42 78 73 85 70 8 -2 20 -17 28 -33 12 -24 11 -39 -2 -107 -21 -106 -85
-232 -197 -390 -49 -71 -90 -135 -90 -143 0 -23 29 -18 69 14 103 81 182 87
219 17 20 -40 29 -190 13 -210 -7 -8 -58 -40 -114 -72 -291 -163 -408 -282
-394 -401 7 -65 40 -95 110 -101 70 -6 112 9 185 62 110 81 201 231 244 400
21 80 27 91 63 119 22 17 75 62 118 100 l77 69 1 -73 c0 -82 15 -137 41 -153
25 -15 54 16 98 106 37 75 38 76 44 46 8 -40 23 -58 50 -58 41 0 80 57 91 132
6 38 3 56 -13 86 -14 27 -17 43 -10 55 12 22 -16 35 -37 17 -18 -15 -73 -114
-135 -240 -26 -52 -54 -101 -63 -108 -52 -44 -30 277 40 566 4 17 1 22 -15 22
-32 0 -57 -80 -82 -258 -12 -88 -30 -113 -150 -214 l-85 -71 -8 64 c-12 98
-26 140 -57 170 -35 35 -73 45 -124 31 -23 -6 -42 -9 -44 -7 -2 2 23 43 56 92
72 107 94 149 127 247 48 142 25 269 -48 265 -7 0 -22 -4 -34 -9z m640 -652
c10 -40 -21 -138 -43 -138 -15 0 -12 47 7 107 18 57 28 66 36 31z m-594 -364
c-28 -91 -87 -207 -138 -271 -119 -151 -311 -187 -311 -58 0 63 59 144 160
219 57 42 302 187 307 182 2 -2 -6 -34 -18 -72z"/>
<path d="M1685 3278 c-118 -43 -265 -209 -357 -404 -21 -45 -43 -105 -50 -134
-10 -43 -19 -58 -50 -80 -58 -43 -95 -55 -123 -42 -34 16 -35 67 -2 76 30 7
76 56 79 85 7 59 -74 47 -118 -18 -52 -77 -20 -181 56 -181 31 0 103 31 115
50 11 18 35 11 35 -10 0 -34 26 -75 57 -89 15 -8 88 -17 161 -22 73 -5 151
-14 174 -21 39 -12 109 -66 107 -84 0 -5 -36 -38 -79 -74 -159 -131 -248 -276
-196 -319 28 -24 83 -24 129 -2 60 29 142 118 175 188 21 46 26 72 26 126 l-1
69 76 61 c42 34 101 85 131 112 85 78 85 78 88 47 5 -63 46 -55 89 17 30 51
32 52 38 28 10 -37 50 -70 85 -70 16 0 47 12 67 27 l38 26 3 -22 c2 -13 10
-28 19 -35 36 -28 74 16 209 237 l34 55 0 -65 c0 -36 -5 -105 -10 -155 -10
-88 -11 -91 -47 -120 -81 -63 -209 -203 -241 -262 -45 -85 -45 -150 0 -188 26
-22 39 -26 71 -22 107 15 189 151 235 396 10 50 23 96 30 103 7 7 54 38 104
68 85 51 117 80 88 80 -7 0 -51 -23 -99 -52 -47 -28 -89 -52 -92 -54 -3 -2 -4
65 -2 149 6 211 -10 226 -91 89 -25 -44 -69 -111 -96 -151 -68 -96 -85 -95
-55 5 17 56 19 94 6 94 -13 0 -51 -49 -51 -65 0 -19 -97 -105 -119 -105 -26 0
-51 37 -51 76 0 84 -28 84 -77 -1 -21 -36 -39 -61 -41 -55 -7 21 21 81 53 116
33 35 34 35 65 19 31 -16 32 -16 28 7 -4 27 -43 44 -82 34 -16 -4 -37 -23 -54
-48 -15 -23 -49 -65 -77 -93 -49 -49 -278 -245 -287 -245 -3 0 -23 18 -46 40
-48 45 -118 70 -201 71 -118 1 -212 16 -233 37 -44 43 -12 195 73 345 51 90
181 243 238 279 102 64 164 59 204 -16 19 -35 22 -56 21 -146 -1 -59 -9 -134
-18 -170 -21 -88 -21 -122 2 -118 12 2 23 27 40 93 50 198 38 332 -38 407 -34
34 -43 38 -86 37 -27 0 -62 -5 -79 -11z m-535 -506 c0 -9 -25 -33 -49 -47 -10
-6 -12 -4 -6 6 22 38 55 63 55 41z m1510 -329 c-23 -114 -70 -239 -105 -286
-43 -57 -93 -77 -130 -53 -53 35 -23 138 72 247 56 65 163 163 170 156 3 -3
-1 -32 -7 -64z m-873 -141 c-6 -70 -34 -128 -90 -189 -47 -52 -103 -83 -147
-83 -26 0 -30 4 -30 28 0 33 36 89 99 156 48 51 158 146 168 146 3 0 3 -26 0
-58z"/>
<path d="M4619 2797 c-71 -48 -129 -154 -115 -211 10 -42 42 -32 102 30 l54
57 0 -50 c0 -47 -4 -55 -66 -129 -161 -193 -199 -394 -76 -394 91 0 182 201
182 400 0 67 10 82 108 152 23 17 42 35 42 40 0 19 -37 5 -86 -32 -29 -22 -56
-40 -59 -40 -3 0 -5 19 -5 43 0 24 -7 52 -15 63 -15 18 -16 18 -43 -16 -50
-64 -100 -115 -107 -108 -8 8 26 88 55 129 12 16 35 36 52 45 30 16 32 15 49
-7 17 -23 18 -23 25 -5 5 14 1 24 -15 38 -30 23 -41 23 -82 -5z m37 -309 c-3
-13 -8 -54 -12 -93 -13 -142 -73 -265 -129 -265 -40 0 -50 24 -37 88 15 70 48
135 114 224 52 70 72 85 64 46z"/>
</g>
</svg>
